<?xml version="1.0" encoding="utf-8"?>
<!-- Generator: Adobe Illustrator 16.0.0, SVG Export Plug-In . SVG Version: 6.00 Build 0)  -->
<!DOCTYPE svg PUBLIC "-//W3C//DTD SVG 1.1//EN" "http://www.w3.org/Graphics/SVG/1.1/DTD/svg11.dtd">
<svg version="1.1" id="Layer_1" xmlns="http://www.w3.org/2000/svg" xmlns:xlink="http://www.w3.org/1999/xlink" x="0px" y="0px"
	 width="388.578px" height="285.41px" viewBox="0 0 388.578 285.41" enable-background="new 0 0 388.578 285.41"
	 xml:space="preserve">
<g>
	<g>
		<path fill="#777908" d="M127.328,0.293c2.05-0.76,4.11-0.01,5.19,1.89c0.73,2.32,0.69,4.77,0.55,7.18
			c-0.34-1.07-1.02-3.2-1.37-4.27c-0.21,1.68-0.44,3.36-0.67,5.05c-0.7-0.83-1.41-1.64-2.09-2.48
			C127.228,5.583,127.337,2.813,127.328,0.293z"/>
		<path fill="#777908" d="M1.348,110.823c-1.24-3.3,1.66-5.39,4.35-6.42c-0.07,0.72-0.22,2.16-0.3,2.88
			c0.44-0.59,1.32-1.79,1.75-2.39C8.498,108.143,4.147,110.643,1.348,110.823z"/>
	</g>
	<g>
		<path fill="#7C7F0E" d="M114.647,4.083c-0.44-2.38,2.31-3.88,4.36-3.4c3.5,0.49,5.66,3.69,6.95,6.69
			c-1.21-0.88-3.62-2.64-4.82-3.52c1.21,1.64,2.54,3.19,3.7,4.87C121.147,8.413,116.607,7.653,114.647,4.083z"/>
	</g>
	<g>
		<path fill="#777B0B" d="M100.718,4.703c1.2-1.25,3-1.04,4.57-1.13c1.62,4.65-2.65,8.08-5.85,10.6c0.11-1.22,0.32-3.68,0.42-4.9
			c-0.67,1.25-1.35,2.5-2.04,3.75C98.228,10.143,98.067,6.613,100.718,4.703z"/>
	</g>
	<g>
		<path fill="#777B04" d="M146.868,6.423c2.03-1.76,4.13-4.3,7.15-3.93c2.27-0.39,3.44,2.19,2.45,3.98
			c-1.22,1.22-2.74,2.13-4.38,2.65c-1.11,0.08-3.31,0.22-4.42,0.29c1.24-1.18,2.5-2.34,3.75-3.5
			C149.897,6.083,148.377,6.263,146.868,6.423z"/>
		<path fill="#777B04" d="M129.158,49.963c2.17-3.41,5.89-5.67,9.98-4.46c0.4,0.65,1.19,1.96,1.59,2.61
			c-1.97,3.46-6.3,3.79-9.86,3.87c-0.29-0.24-0.86-0.73-1.14-0.97c1.36-0.64,2.72-1.28,4.07-1.93
			C132.638,49.303,130.317,49.743,129.158,49.963z"/>
	</g>
	<g>
		<path fill="#797B04" d="M159.167,6.283c2.78-2.49,6.76-3.68,10.16-1.66c0.27,0.6,0.8,1.78,1.07,2.37
			c-0.34,0.55-1.01,1.66-1.35,2.21c-3.28,0.34-6.64,0.26-9.71-1.05c1.74-1.19,3.88-1.41,5.89-1.87
			C163.208,6.273,161.167,6.323,159.167,6.283z"/>
	</g>
	<g>
		<path fill="#7A7C07" d="M137.757,15.533c-0.02-3.06-1.62-7.19,1.24-9.39C144.678,6.043,143.368,17.003,137.757,15.533z"/>
	</g>
	<g>
		<path fill="#B3B57C" d="M146.848,10.413c-0.24-1.33-0.33-2.68,0.02-3.99c1.51-0.16,3.03-0.34,4.55-0.51
			c-1.25,1.16-2.51,2.32-3.75,3.5c1.11-0.07,3.31-0.21,4.42-0.29C150.357,9.643,148.607,10.053,146.848,10.413z"/>
	</g>
	<g>
		<path fill="#7D8111" d="M107.218,9.053c1.65-1.45,3.62-2.39,5.83-2.56c0.39,0.62,1.16,1.87,1.55,2.49
			c-1.78,1.97-3.85,3.67-6.33,4.66c0.3-1.15,0.6-2.3,0.91-3.45C108.688,9.903,107.708,9.333,107.218,9.053z"/>
	</g>
	<g>
		<path fill="#777A05" d="M87.728,12.173c-1.13-1.44-0.86-4.23,1.23-4.62c4.56-0.84,7.88,3.76,8,7.9c-1.31-1.29-2.56-2.62-3.92-3.84
			c0.94,1.71,1.96,3.37,2.95,5.06C92.837,16.113,89.828,14.613,87.728,12.173z"/>
	</g>
	<g>
		<path fill="#A6A86B" d="M105.788,11.283c0.47-0.75,0.94-1.5,1.43-2.23c0.49,0.28,1.47,0.85,1.96,1.14
			c-0.31,1.15-0.61,2.3-0.91,3.45l-0.16,0.59C106.948,13.583,106.408,12.373,105.788,11.283z"/>
	</g>
	<g>
		<path fill="#787C05" d="M173.468,18.813c-2.16-3.47-2.74-10.1,2.74-10.5c2.12,3.47,2.9,8.93-0.3,11.94
			c-0.03-0.53-0.07-1.58-0.09-2.11C175.027,18.373,174.248,18.593,173.468,18.813z"/>
	</g>
	<g>
		<path fill="#7A7D06" d="M77.917,13.893c1.12-2.34,4.95-4.97,6.8-1.94c0.13,3.54-3.49,5.42-5.78,7.49
			c0.32-1.44,0.66-2.88,0.99-4.32c-0.59,0.19-1.78,0.57-2.37,0.76C77.647,15.383,77.828,14.393,77.917,13.893z"/>
		<path fill="#7A7D06" d="M117.317,52.663c-1.14-2.34,1.48-4.25,3.63-4.06c2.03-0.3,3.72,0.95,5.29,2.03
			c0.1,0.59,0.31,1.78,0.41,2.38C123.667,53.623,119.877,54.933,117.317,52.663z"/>
		<path fill="#7A7D06" d="M68.348,95.143c-0.36-5.12,5.66-6.56,9.38-8.07c-0.17,0.76-0.5,2.27-0.66,3.03l1.74,0.21
			C76.857,93.963,72.638,98.123,68.348,95.143z"/>
	</g>
	<g>
		<path fill="#787D04" d="M154.368,16.063c1.3-3.4,4.55-5.99,8.32-4.78c1.12,4.55-3.99,6-7.11,7.63
			C155.297,17.903,154.888,16.963,154.368,16.063z"/>
	</g>
	<path fill="#787C03" d="M181.897,14.923c1.98-3.04,7.97-5.81,9.64-1.05c-1.13,3.42-4.43,6.05-7.88,6.84
		c-0.49,0.1-1.49,0.29-1.99,0.38c1.18-1.86,2.37-3.71,3.62-5.52c-1.51,0.85-3.02,1.7-4.52,2.54
		C181.047,17.323,181.618,15.723,181.897,14.923z"/>
	<path fill="#787C03" d="M52.698,36.883c1.26-2.15,3.56-4.18,6.25-3.54c1.85,0.19,2.4,2.64,1.5,4.04c-1.63,2.84-4.46,4.74-7.24,6.33
		c0.32-0.98,0.96-2.94,1.27-3.92c0.56-0.66,1.11-1.33,1.66-2c-1.24,0.47-2.48,0.94-3.71,1.41
		C52.498,38.623,52.627,37.463,52.698,36.883z"/>
	<path fill="#787C03" d="M119.007,79.303c-0.89-4.03,2.26-10.64,7.12-8.34c1.5,2.86-0.78,5.8-2.42,8.02
		c-0.57,0.27-1.69,0.82-2.25,1.09c0.11-1.21,0.34-3.64,0.45-4.85c-0.63,0.89-1.27,1.78-1.92,2.67
		C119.738,78.243,119.248,78.943,119.007,79.303z"/>
	<g>
		<path fill="#7F8113" d="M120.938,12.173c1.47,0.01,2.93,0.08,4.4,0.15c0.1,0.63,0.3,1.88,0.4,2.51c-2.41,1.38-4.99,2.85-7.88,2.5
			C117.167,14.893,119.038,13.213,120.938,12.173z"/>
	</g>
	<g>
		<path fill="#797D07" d="M142.488,16.193c2.25-1.72,5.7-3.69,8.23-1.31c0.82,2.07-0.78,3.72-2.61,4.34
			c-1.86,0.23-3.71,0.43-5.57,0.59c0.69-0.72,2.05-2.17,2.74-2.9C144.578,16.733,143.188,16.373,142.488,16.193z"/>
	</g>
	<g>
		<path fill="#ACAE70" d="M78.797,20.033c-1.68-1.69-2.48-4.09-0.88-6.14c-0.09,0.5-0.27,1.49-0.36,1.99
			c0.59-0.19,1.78-0.57,2.37-0.76c-0.33,1.44-0.67,2.88-0.99,4.32L78.797,20.033z"/>
	</g>
	<g>
		<path fill="#777C05" d="M127.587,17.103c-0.96-1.73,0.39-3.83,2.41-3.6c3.24-0.5,5.47,2.3,7.38,4.41
			c-0.98-0.32-2.95-0.97-3.93-1.29c0.82,0.78,2.45,2.34,3.27,3.12C133.538,19.623,130.058,19.363,127.587,17.103z"/>
	</g>
	<g>
		<path fill="#7D7F10" d="M100.998,17.073c0.71-1.67,2.65-2.28,4.27-1.61c2.45,2.84,1.57,6.88,1.34,10.28
			c-1.48-0.11-2.95-0.33-4.43-0.39C101.058,22.783,99.498,19.843,100.998,17.073z"/>
	</g>
	<g>
		<path fill="#78790A" d="M109.397,19.933c-0.89-3.7,2.8-5.94,6.12-5.46c0.12,1.36,0.52,3.17-0.98,3.97
			c-0.91,0.43-1.84,0.82-2.78,1.17C111.167,19.693,109.988,19.853,109.397,19.933z"/>
	</g>
	<g>
		<path fill="#B8BA85" d="M179.757,18.823c0.69-1.31,1.4-2.62,2.14-3.9c-0.28,0.8-0.85,2.4-1.13,3.19c1.5-0.84,3.01-1.69,4.52-2.54
			c-1.25,1.81-2.44,3.66-3.62,5.52c0.5-0.09,1.5-0.28,1.99-0.38l0.07,1.04c-0.61,0.02-1.84,0.06-2.45,0.08
			C180.777,20.823,180.277,19.823,179.757,18.823z"/>
	</g>
	<g>
		<path fill="#777C02" d="M66.408,18.893c0.79-1.28,1.76-2.97,3.53-2.78c1.52-0.17,2.18,1.65,1.93,2.87
			c-0.27,2.14-1.35,4.05-2.24,5.97c-0.31-1.03-0.68-2.05-1.1-3.05c-0.79-0.24-1.57-0.5-2.35-0.79
			C66.238,20.563,66.348,19.443,66.408,18.893z"/>
	</g>
	<g>
		<path fill="#767A04" d="M82.777,20.933c1.18-2.27,3.33-4.96,6.23-4.27c2.21,0.81,1.8,3.51,0.84,5.15
			c-1.13,2.16-2.79,3.97-4.48,5.7c-0.11-1.96-0.01-3.91,0.19-5.85c-1,1.09-2.02,2.17-3.04,3.24
			C82.587,23.913,82.718,21.923,82.777,20.933z"/>
	</g>
	<path fill="#787B03" d="M192.208,18.083c2.37-0.96,5.07-2.16,7.59-0.91c2.15,0.68,3.7,3.04,2.68,5.24
		c-3.42,2.86-8.24,1.4-12.07,0.25c1.96-0.97,3.98-1.8,6.02-2.55C195.018,19.443,193.607,18.773,192.208,18.083z"/>
	<path fill="#787B03" d="M136.368,119.513c-2.38-3.78,0.67-9.24,3.95-11.6c-0.16,2.05-0.41,4.1-0.5,6.15
		c0.6-1.7,0.97-3.48,1.44-5.21C144.828,112.243,141.968,121.253,136.368,119.513z"/>
	<g>
		<path fill="#AFB172" d="M190.107,22.813c0.28-1.72,0.27-3.87,2.1-4.73c1.4,0.69,2.81,1.36,4.22,2.03
			c-2.04,0.75-4.06,1.58-6.02,2.55L190.107,22.813z"/>
	</g>
	<g>
		<path fill="#A4A661" d="M67.417,25.383c-2.35-1.32-1.21-4.36-1.01-6.49c-0.06,0.55-0.17,1.67-0.23,2.22
			c0.78,0.29,1.56,0.55,2.35,0.79c0.42,1,0.79,2.02,1.1,3.05C69.917,26.103,67.928,25.813,67.417,25.383z"/>
	</g>
	<path fill="#415317" d="M133.587,25.513c2.49-1.43,3.39-4.68,6.18-5.65c-0.54,1.32-1.62,3.97-2.17,5.29
		c3.79-0.48,7.58-1.01,11.4-1.06c1.36-0.2,2.56,0.34,3.59,1.19c-7.88,0.73-16.1,1.24-23.22,5.05c-6.48,3.23-10.23,9.72-14.33,15.36
		c5.06-2.12,10.18-4.18,15.03-6.75c3.23-1.67,4.57-5.45,7.76-7.16c-0.71,2.51-2.06,4.74-3.58,6.83c5.27-0.44,10.55-0.27,15.82-0.33
		c5.67-0.03,10.91-2.67,15.54-5.72c3.94-2.53,6.76-6.84,11.55-7.94c-2.82,2.47-5.59,5.04-7.62,8.22c7.47,3.3,15.12,7.12,23.5,6.98
		c5.13,0.33,10.13-1.08,15.23-1.34c-1.89,1.24-4.02,2.02-6.13,2.76c2.54,2.1,5.25,4.71,8.85,4.32c4.89,0.25,8.82-2.89,12.61-5.49
		c-1.44,2.32-3.54,4.08-5.92,5.38c5.29,2.14,11,3.62,15.57,7.2c4.95,3.89,8.89,8.88,12.38,14.07c1.02,1.56,1.97,3.16,2.92,4.77
		c-5.14-5.19-9.56-11.1-15.15-15.84c-4.14-3.47-9.15-5.83-14.39-7.05c-4.81-1.06-10.06-0.04-14.56-2.4
		c-2.32-1.07-4.08-3.11-6.46-4.01c-4.17-0.1-8.36,0.09-12.48-0.72c1.29,2.51,2.47,5.2,1.79,8.09c-1.81-4.32-3.85-9.64-9.05-10.63
		c-4.03-0.8-7.93-3.06-12.09-2.59c-4.54,1.59-8.82,3.99-13.66,4.68c3.13,3.07,7.06,5.04,11.01,6.84c-6.09,2.57-10.47-4.07-15.8-5.62
		c-10.74-2.3-21.5,1.83-31.08,6.36c-7.52,3.21-12.87,9.74-17.91,15.92c5.67-0.21,11.67-0.19,16.82-2.92
		c4.49-2.08,8.34-5.22,12.54-7.8c-1.37,3.05-4.28,4.8-6.94,6.59c6.91-0.9,13.46,1.43,19.9,3.48c4.49-0.56,7.48-4.39,10.83-7.03
		c6.49-5.42,15.77-6.34,23.75-4.36c-3.09,1.06-6.41,0.55-9.59,1.04c-4.89,0.63-9.46,2.73-13.46,5.54c4.4-0.1,8.91-0.25,13.17,1.08
		c4.1,1.31,8.76,2.42,11.32,6.24c-6.38-1.47-12.13-5.81-19.02-5c-6.55-0.25-11.79,4.53-17.99,5.38c-5.84-1.9-11.74-4.52-18.05-3.94
		c-5.58,0.95-10.35,4.46-15.94,5.35c-6.66,0.52-13.46-0.69-20.01,0.98c-8.5,2.05-17.15,4.49-24.49,9.41
		c-4.93,3.67-9.32,7.99-13.75,12.23c-5.61,5.23-8.21,12.82-9.7,20.15c-1.63,7.22,1.38,15,6.71,19.97
		c2.17-4.85,4.44-10.02,8.84-13.26c5.75-4.33,12.84-6.33,18.74-10.39c4.24-3.04,7.99-6.98,9.99-11.85c1.39-3.73,0-7.94,1.59-11.62
		c1.55-3.61,5.02-5.85,8.42-7.52c-2.36,2.6-5.54,4.7-6.74,8.15c-0.87,2.7-0.32,5.59-0.16,8.37c7.32-0.39,13.03-5.3,18.15-10.01
		c-1.17,5.68-6.59,8.86-11.79,10.26c-4.86,1.35-10.83,4.51-9.72,10.56c10.19,0.01,21-2.74,28.31-10.22
		c3.03-2.69,5.28-6.07,7.47-9.44c-0.56,4.03-3.04,7.39-6.17,9.87c6.32-1.96,12.86-0.94,19.25-0.11c5.47,0.73,9.1-4.09,13.04-6.97
		c-1.61,4.28-5.77,6.59-9.35,9.01c3.41,2.03,7.32,4.81,6.73,9.38c-2.77-2.82-4.8-6.55-8.54-8.24c-5.89-2.88-12.83-2.8-19.1-1.39
		c-5.02,1.11-8.77,4.91-13.38,6.94c-5.79,2.59-12.17,3.34-18.43,3.83c-2.3,0.04-3.76,2.04-5.43,3.33
		c-4.71,4.36-11.33,5.6-16.27,9.61c-6.2,4.53-9.33,12.2-9.77,19.69c-0.44,6.26-0.15,12.67,2.07,18.61
		c2.48,6.63,5.43,13.32,10.4,18.49c3.26,3.53,7.36,6.09,11.16,8.97c-9.44-2.52-19.14-7.25-24.16-16.05
		c-6.9-10.74-6.13-24.67-14.05-34.94c-5.41-6.67-7.5-15.65-5.85-24.06c1.08-5.16,2.51-10.24,3.97-15.3
		c1.53-5.92,5.15-11.35,4.76-17.67c0.43-6.48-3.74-12.13-8.39-16.17c7.13,1.59,8.38,9.4,12.38,14.23c2.67-4.02,5.79-7.73,9.14-11.2
		c0.84-1.01,2.09-1.48,3.28-1.95c-5.19,6.82-11.11,14-12.07,22.82c3.48-3.75,7.15-7.37,11.45-10.21
		c6.9-4.61,10.46-12.36,15.18-18.89c3.44-4.9,7.66-9.3,10.18-14.79c2.49-5.19,6.85-9.66,12.3-11.68c0.35,0.21,1.06,0.62,1.41,0.83
		c-4.56,3.39-9.25,7.39-10.73,13.12c4.61-0.85,7.89-4.39,12.09-6.13c-1.39,3.72-4.55,6.34-8.13,7.87
		c-5.19,2.26-9.62,6.05-12.77,10.75c4.21-1.66,8.37-3.58,12.88-4.28c4.07-0.63,7.62-2.99,10.41-5.93c4.02-4.6,7.68-10.11,7.36-16.5
		c1.55,2.88,1.27,6.17,0.03,9.12c2.74-1.66,5.67-3.23,8.93-3.48c-2.56,2.33-5.89,3.52-8.59,5.64c-3.89,3.13-5.52,8.34-9.75,11.12
		c-3.47,2.5-7.65,3.61-11.69,4.81c0.94,0.67,2.04,1.31,3.26,0.95c4.22-0.29,8.17-1.88,12.28-2.75c-4.29,4.14-10.56,4.65-16.21,4.64
		c-7.12-0.09-15.19,3.93-17.07,11.25c10.33-4.69,22.33-4.95,31.95-11.29c8.06-6.24,13.6-14.99,20.51-22.36
		C122.728,31.883,128.218,28.693,133.587,25.513z"/>
	<g>
		<path fill="#A5A764" d="M81.917,27.333c0.01-2.17,0.22-4.33,0.86-6.4c-0.06,0.99-0.19,2.98-0.26,3.97
			c1.02-1.07,2.04-2.15,3.04-3.24c-0.2,1.94-0.3,3.89-0.19,5.85l0.01,0.45c-0.36,0.07-1.08,0.2-1.44,0.27
			c-0.05-0.58-0.14-1.74-0.19-2.32C83.288,26.273,82.368,26.973,81.917,27.333z"/>
	</g>
	<g>
		<path fill="#787B07" d="M112.757,21.383c1.56,0.07,3.12,0.16,4.69,0.25c0,1.18,0.3,2.4-0.08,3.55c-2.28,2.51-5.85,2.92-8.93,3.83
			l-0.06-2.46c1.31-0.34,2.63-0.7,3.94-1.07c-1.14,0.07-3.42,0.23-4.56,0.31C109.127,24.043,110.598,22.193,112.757,21.383z"/>
		<path fill="#787B07" d="M9.428,113.443c2.88-0.98,5.74,0.58,6.85,3.33c-0.03,0.67-0.08,2.01-0.11,2.68
			c-0.48-0.32-1.45-0.95-1.93-1.27c-0.16,1.49-0.32,2.99-0.47,4.49C11.178,120.303,8.788,117.193,9.428,113.443z"/>
		<path fill="#787B07" d="M0.377,124.803c-1.37-2.37,1.26-4.68,3.55-4.54c3.41-0.45,6.39,1.64,8.39,4.2l-5.07-1.7
			c1.21,0.89,3.63,2.68,4.85,3.57C8.238,126.633,3.547,127.673,0.377,124.803z"/>
	</g>
	<g>
		<path fill="#787A05" d="M159.118,20.713c2.49-0.22,5.4-1.16,7.58,0.57c1.39,0.71,1.33,2.83,0.52,3.97c-3.36,1-7.19,0.08-9.74-2.34
			c0.61-0.05,1.81-0.16,2.41-0.22C159.698,22.193,159.317,21.213,159.118,20.713z"/>
	</g>
	<g>
		<path fill="#808211" d="M92.897,24.243c2.09-3.94,6.16-0.25,7.86,2.07c0.46,0.7,1.39,2.09,1.86,2.78
			c-1.21-0.42-3.62-1.26-4.82-1.68c0.94,0.75,2.84,2.24,3.78,2.99C97.768,30.083,93.678,28.393,92.897,24.243z"/>
	</g>
	<g>
		<path fill="#7B7D07" d="M57.158,24.053c1.98-1.13,4.18-0.26,6.19,0.29c0.09,0.66,0.27,1.96,0.36,2.62
			c-2.72,1.14-5.89,3.77-8.89,2.09C53.138,27.153,55.277,24.743,57.158,24.053z"/>
	</g>
	<g>
		<path fill="#757903" d="M72.397,24.253c3.51-0.62,6.27,1.93,8.29,4.45c-1.49-0.15-2.96-0.32-4.44-0.5
			c0.39,0.67,1.16,2.02,1.54,2.7c-0.72-0.14-2.17-0.43-2.89-0.57C72.658,29.083,71.938,26.643,72.397,24.253z"/>
	</g>
	<g>
		<path fill="#7A7F09" d="M153.808,25.113c5.37-1.13,7.85,9.17,2.1,9.42C153.067,32.333,153.708,28.263,153.808,25.113z"/>
	</g>
	<g>
		<path fill="#787C02" d="M180.658,24.823c5.37-1.54,12.98,1.96,11.93,8.39c-5.41,3.11-10.54-2.78-13.51-6.76
			c2.42,0.16,4.79,0.68,7.16,1.17C184.408,26.643,182.507,25.763,180.658,24.823z"/>
	</g>
	<g>
		<path fill="#7A7C05" d="M209.428,28.083c1.47-1.09,3.14-2.35,5.1-1.69c2.34,2.61-1.42,5.67-3.07,7.58
			C210.417,32.143,209.948,30.093,209.428,28.083z"/>
	</g>
	<g>
		<path fill="#7A7C06" d="M200.797,27.783c0.62-1.45,1.72-1.85,3.3-1.19c1.47,2.38,1.37,5.23,1.48,7.91l-2.34,0.23
			c0.13-0.79,0.39-2.35,0.51-3.14c-0.31,0.77-0.95,2.31-1.27,3.08C201.107,32.723,199.507,30.193,200.797,27.783z"/>
	</g>
	<g>
		<path fill="#B0B276" d="M76.248,28.203c1.48,0.18,2.95,0.35,4.44,0.5c0.27,0.04,0.82,0.1,1.09,0.13
			c-0.85,0.94-1.69,1.89-2.52,2.84c-1.46-0.42-2.92-0.85-4.36-1.34c0.72,0.14,2.17,0.43,2.89,0.57
			C77.408,30.223,76.638,28.873,76.248,28.203z"/>
	</g>
	<g>
		<path fill="#B5B880" d="M208.667,34.023c-0.14-2.02,0.13-4.02,0.76-5.94c0.52,2.01,0.99,4.06,2.03,5.89
			c0.3,0.53,0.73,0.97,1.28,1.29c0.7,0.67,1.37,1.38,2,2.12c-0.74,0.34-2.21,1.02-2.94,1.36c-0.39-0.11-1.16-0.33-1.55-0.44
			c0.43-0.84,1.27-2.53,1.7-3.37C211.127,34.703,209.488,34.253,208.667,34.023z"/>
	</g>
	<g>
		<path fill="#797D09" d="M63.678,30.863c2.19-2.98,6.16-2.06,8.89-0.45c0.04,1.14,0.07,2.28,0.12,3.42
			C69.757,34.053,63.167,35.553,63.678,30.863z"/>
	</g>
	<g>
		<path fill="#7B7D0D" d="M42.248,37.713c-0.87-1.7,1.09-3.43,2.76-2.89c3.75,1,6.14,5.69,3.32,8.89
			C46.107,41.963,43.468,40.383,42.248,37.713z"/>
	</g>
	<g>
		<path fill="#777A06" d="M71.357,38.193c1.11-2.81,4.24-3.71,6.91-4.28l-2.42,2.96c1.07-0.39,3.2-1.16,4.27-1.55
			c-1.47,2.8-3.71,5.74-6.95,6.42C71.337,42.003,70.587,39.543,71.357,38.193z"/>
	</g>
	<g>
		<path fill="#787E0A" d="M212.738,35.263c3.34-1.27,8.82,1.01,6.67,5.22c-2.62-0.17-5.2-0.71-7.61-1.74
			c0.73-0.34,2.2-1.02,2.94-1.36C214.107,36.643,213.438,35.933,212.738,35.263z"/>
	</g>
	<g>
		<path fill="#A1A45F" d="M51.738,42.453c-0.06-1.9,0.31-3.78,0.96-5.57c-0.07,0.58-0.2,1.74-0.27,2.32
			c1.23-0.47,2.47-0.94,3.71-1.41c-0.55,0.67-1.1,1.34-1.66,2l-1.04,0.77C53.018,41.043,52.167,41.983,51.738,42.453z"/>
	</g>
	<g>
		<path fill="#787C07" d="M163.507,41.833c2.65-3.14,7.16-0.47,8.74,2.42l0.95,2.06c-0.95-0.49-2.86-1.46-3.81-1.94
			c0.79,1.19,1.6,2.39,2.32,3.63c0.03,0.33,0.1,0.99,0.13,1.31C168.587,47.813,163.158,46.233,163.507,41.833z"/>
	</g>
	<g>
		<path fill="#777A04" d="M174.958,50.543c-0.32-3.43,0.84-8.46,5.06-8.72c2.42,0.13,1.81,2.85,1.25,4.41
			c-1.06,2.19-2.89,3.86-4.62,5.52c-0.22-2.11,0.55-4.05,1.33-5.95C177.228,46.993,175.718,49.363,174.958,50.543z"/>
		<path fill="#777A04" d="M146.897,86.133c3.31,0.18,7.44-0.85,9.92,2.02c1.37,1.3,1.68,4.67-0.6,5.19
			c-3.97,0.02-7.78-2.28-10.1-5.44c1.36-0.08,4.1-0.23,5.46-0.31C150.007,87.123,148.448,86.633,146.897,86.133z"/>
	</g>
	<g>
		<path fill="#787B06" d="M36.988,48.013c-2.15-1.37-0.43-4.82,1.88-4.76c3.34-0.85,6.24,1.18,8.71,3.12
			c-0.77,0.2-2.32,0.61-3.1,0.81c0.83,0.56,2.48,1.67,3.31,2.22C44.228,49.553,40.067,50.303,36.988,48.013z"/>
		<path fill="#787B06" d="M3.518,95.463c2.91-1.55,6.12-0.13,8.7,1.4c0.14,1,0.28,2.01,0.43,3.03c-3.2,0.78-6.78,1.99-9.92,0.36
			C0.408,99.273,1.607,96.163,3.518,95.463z"/>
	</g>
	<g>
		<path fill="#797C08" d="M58.308,46.993c1.28-2.37,3.32-4.36,6.23-3.52c-0.07,3.19-2.63,5.21-4.92,7
			C59.788,49.053,59.348,47.883,58.308,46.993z"/>
	</g>
	<g>
		<path fill="#C2C398" d="M172.248,44.253c0.65,0.88,1.28,1.77,1.93,2.66c-0.76,1.06-1.55,2.1-2.29,3.18l-0.05-0.78
			c-0.03-0.32-0.1-0.98-0.13-1.31c-0.72-1.24-1.53-2.44-2.32-3.63c0.95,0.48,2.86,1.45,3.81,1.94L172.248,44.253z"/>
	</g>
	<g>
		<path fill="#767A03" d="M50.268,49.933c-0.4-2.49,2.09-5.54,4.68-4.16c2.78,2.98,1.41,7.5,1.19,11.12
			c-2.1-1.34-2.19-3.93-2.87-6.07c0.03,2.23,0.01,4.47,0.56,6.66C52.078,55.303,49.757,53.013,50.268,49.933z"/>
	</g>
	<g>
		<path fill="#787C04" d="M30.107,48.123c1.09-1.5,3.3-1.09,4.32,0.26c2.31,2.5,1.63,6.23,0.49,9.11c-0.54-1.53-1.08-3.05-1.62-4.57
			c-0.58,1.76-1.25,3.5-1.91,5.24C30.067,55.093,28.547,51.383,30.107,48.123z"/>
		<path fill="#787C04" d="M44.147,57.713c-1.29-1.46-1.52-4.47,0.78-5.06c3.09,0.97,6.42,3.54,6.65,6.99
			c-1.27-0.7-2.53-1.43-3.78-2.17c0.66,0.79,1.99,2.38,2.66,3.18C48.188,60.163,45.607,59.733,44.147,57.713z"/>
		<path fill="#787C04" d="M10.877,76.993c1.36-3.01,4.93-1.09,6.17,1.01c1.17,3.06,0.63,6.33-0.25,9.39
			c-0.5-2.01-0.88-4.04-1.36-6.06c0.01,1.67,0.02,3.34,0.03,5.02c-0.36,0.2-1.08,0.61-1.44,0.81
			C12.408,84.053,9.998,80.683,10.877,76.993z"/>
		<path fill="#787C04" d="M159.598,106.043c0.16-0.09,0.47-0.25,0.62-0.33c3.78-0.12,7.69,6.01,2.94,7.78
			c-3.08-1.56-5.82-3.74-7.79-6.6c0.59,0.13,1.78,0.39,2.38,0.52c0.47,0.13,1.43,0.38,1.9,0.5
			C159.638,107.443,159.607,106.513,159.598,106.043z"/>
	</g>
	<g>
		<path fill="#797C06" d="M56.877,56.533c2.18-2.5,5.29-6.06,9.01-4.59c2.13,0.44,2.27,3.45,0.4,4.35
			c-2.63,1.59-6.26,3.68-9.19,1.75c1.28-0.58,2.56-1.15,3.85-1.72C59.928,56.383,57.897,56.483,56.877,56.533z"/>
	</g>
	<g>
		<path fill="#767C04" d="M177.578,53.603c3.2-2.83,10.2-1.2,9.09,3.9c-3.44,0.42-7.68,0.37-9.88-2.78
			c1.58-0.08,3.16-0.15,4.76-0.22C180.547,54.283,178.567,53.833,177.578,53.603z"/>
	</g>
	<g>
		<path fill="#A5A965" d="M33.297,52.923c0.54,1.52,1.08,3.04,1.62,4.57l0.23,0.65c-1.03-0.16-4.09,1.6-3.76,0.02
			C32.047,56.423,32.718,54.683,33.297,52.923z"/>
	</g>
	<g>
		<path fill="#797B03" d="M131.788,54.453c3.43-3.14,12.13,0.72,9.03,5.57c-3.63,1.31-8.29-1.42-9.91-4.74
			c1.75,0.28,3.5,0.66,5.25,0.94C134.708,55.613,133.238,55.043,131.788,54.453z"/>
	</g>
	<g>
		<path fill="#797E05" d="M18.337,64.883c1.5-4.32,6.7-5.07,10.47-3.44l-0.62,1.33c0.51,0.24,1.52,0.72,2.03,0.96
			c-3.08,2.15-6.53,3.97-10.41,3.72C19.448,66.813,18.708,65.523,18.337,64.883z"/>
	</g>
	<g>
		<path fill="#787907" d="M179.868,62.553c2.37-2,5.58-1.45,8.38-0.95c0.81,1.59,1.21,4.14-1.18,4.51c-2.6,0.23-7.28,0.83-7.88-2.54
			c1.42-0.03,2.85-0.04,4.29-0.04C182.567,63.283,180.768,62.793,179.868,62.553z"/>
	</g>
	<g>
		<path fill="#808313" d="M186.797,70.023c0.99-0.9,1.88-1.9,2.87-2.81c3.13-0.03,8.05,1.88,6.56,5.85
			C192.817,74.783,189.388,72.023,186.797,70.023z"/>
	</g>
	<g>
		<path fill="#7F7F18" d="M173.417,70.343c1.49-0.85,3.55,0.78,3.06,2.47c0.32,3.56-2.46,7.13-6.3,5.97
			C169.598,75.553,171.198,72.553,173.417,70.343z"/>
	</g>
	<g>
		<path fill="#767909" d="M181.277,70.653c0.02-0.44,0.06-1.33,0.08-1.77c3.03,1.22,6.54,3.78,5.26,7.55
			c-3.88,2.39-6.72-3.26-8.48-5.99C178.917,70.493,180.498,70.603,181.277,70.653z"/>
	</g>
	<g>
		<path fill="#777B02" d="M110.368,72.313c2.19-0.61,3.7,1.65,4.45,3.38c0.41,1.97,0.81,3.94,1.19,5.93
			c-1.47-1.35-2.91-2.71-4.37-4.05c0.65,1.65,1.26,3.32,1.88,4.99c-2.11-1.3-4.39-2.9-4.86-5.53
			C108.297,75.383,108.317,72.743,110.368,72.313z"/>
	</g>
	<g>
		<path fill="#787A03" d="M95.757,76.303c1.51-2.68,4.83-3.7,7.69-2.8c3.11,2.44-0.88,5.74-3.41,6.54c-1.14,0.2-3.41,0.59-4.55,0.79
			c1.21-1.41,2.43-2.81,3.66-4.22c-1.08,0.3-3.24,0.88-4.32,1.18L95.757,76.303z"/>
	</g>
	<g>
		<path fill="#787D05" d="M137.498,73.153c6.28-1.23,6.12,7.34,5.85,11.43c-0.93-1.14-2.78-3.4-3.7-4.54l1.38,4.54
			C137.348,82.133,135.038,77.273,137.498,73.153z"/>
	</g>
	<g>
		<path fill="#7A7D08" d="M77.658,74.463c3.56-1.08,6.33,1.62,6.99,4.93c-2.87,0.76-5.42-0.65-7.35-2.68
			C77.388,76.153,77.567,75.033,77.658,74.463z"/>
	</g>
	<g>
		<path fill="#787C06" d="M145.498,80.883c0.68-4.2,4.44-7.87,8.88-6.41c1.35,4.93-3.85,8.05-7.34,10.34
			C147.027,83.263,146.507,81.953,145.498,80.883z"/>
	</g>
	<g>
		<path fill="#787B04" d="M20.527,78.933c0.56-1.95,1.94-3.46,3.31-4.87c2.41,0.92,4.05,3.33,3.35,5.93
			c-0.94,2.63-2.92,4.64-5.12,6.28c0.55-1.87,1.16-3.7,1.83-5.52c-1.27,1.85-2.63,3.64-4.18,5.27
			C19.708,83.633,19.928,81.243,20.527,78.933z"/>
		<path fill="#787B04" d="M68.547,80.773c1.11-2,3.6-1.42,5.47-1.29c2.6,0.3,4.91,1.63,6.88,3.29c-2.09,0.34-4.18,0.59-6.24,0.99
			c1.86,0.33,3.75,0.54,5.62,0.84c-1.76,0.59-3.53,1.14-5.29,1.71C72.158,85.803,67.698,84.583,68.547,80.773z"/>
		<path fill="#787B04" d="M145.388,100.023c2.64-1.75,6.55-2.85,9.28-0.75c1.39,0.85,0.67,2.59,0.76,3.9
			c-3.25,1.29-6.73,1.34-10.16,1.01C145.337,102.793,145.377,101.403,145.388,100.023z"/>
	</g>
	<g>
		<path fill="#A2A45D" d="M119.988,77.893c0.65-0.89,1.29-1.78,1.92-2.67c-0.11,1.21-0.34,3.64-0.45,4.85
			c0.56-0.27,1.68-0.82,2.25-1.09c-0.76,0.91-1.73,1.59-2.74,2.19C121.167,79.913,120.837,78.813,119.988,77.893z"/>
	</g>
	<g>
		<path fill="#7B7F0E" d="M155.688,81.323c2.95-0.74,7.43-0.01,6.8,3.96c-2.5,0.31-5.01,0.04-7.37-0.85
			C155.308,83.403,155.488,82.363,155.688,81.323z"/>
	</g>
	<g>
		<path fill="#797C05" d="M121.728,83.703c3.1-1.24,7.08-1.81,9.65,0.83c1.49,1.09,1.49,3.81-0.48,4.34
			c-3.28,1.07-6.52-0.92-9.54-2.01C121.488,85.803,121.607,84.753,121.728,83.703z"/>
	</g>
	<g>
		<path fill="#7C800F" d="M20.837,90.693c2.67-2.94,6.02-5.59,10.18-5.68c3.16,1.91,0.75,5.55-1.61,6.88
			c-2.18,0.53-4.46,0.54-6.69,0.56c1.52-0.79,3.05-1.56,4.59-2.3C25.158,90.373,22.998,90.553,20.837,90.693z"/>
	</g>
	<g>
		<path fill="#7C7F13" d="M6.257,90.703c-0.9-2.85,3.22-3.27,4.76-1.65c1.86,0.94,1.67,3.1,1.64,4.86
			C10.428,93.113,7.868,92.603,6.257,90.703z"/>
	</g>
	<g>
		<g>
			<path fill="#415318" d="M17.337,90.623c1.56,4.4,0.47,9.17,1.36,13.69c0.63,4.51,4.09,7.76,6.32,11.52
				c0.11-5.17,1.52-10.15,3.34-14.95c-0.73,7.31-1.77,14.69-0.77,22.02c1.85,8.24,8.23,14.41,11.17,22.2
				c1.59,4.04,3.16,8.1,4.32,12.3c-2.53-2.72-4.78-5.67-7.01-8.61c1.83,3.74,3.07,7.73,4.46,11.65c1.91,5.29,6.22,9.08,9.89,13.15
				c-4.68-2.02-9.14-4.65-12.58-8.47c2.5,4.3,5.57,8.33,9.64,11.26c11.36,8.55,25.55,11.68,38.04,18.1
				c5.24,2.82,10.45,6.22,13.59,11.44c-2.2-1.11-4.34-2.33-6.6-3.31c-6.18-2.73-13.1-2.33-19.55-4.01
				c-8.98-2.21-18.22-5.93-24.03-13.48c4.94,8.63,14.45,13.12,23.45,16.33c7.7,2.89,16.57,1.92,23.67,6.49
				c7.72,4.79,13.37,12.36,21.54,16.51c8.11,4.61,18.06,2.5,26.34,6.6c3.65,1.53,6.59,4.3,8.84,7.51
				c6.51-1.85,13.52-2.69,20.09-0.64c6.54,1.72,11.76,6.44,18.25,8.25c8.48,1.78,17.09-0.97,24.81-4.35
				c10.44-4.5,20.24-10.99,27.34-19.99c-0.64,1.25-1.28,2.49-1.96,3.72c-10.2,15.63-29.02,24.16-47.29,24.96
				c2.65,3.18,5.42,6.28,7.73,9.74c-1.12,0.5-2.23,1.02-3.34,1.54c-3.87-6.64-10.96-10.19-17.22-14.14
				c-7.21-4.44-16.02-4.06-24.08-2.95c0.79,3.05,1.1,6.2,1.67,9.29c2.33,2.13,5.12,3.68,7.65,5.57c5.49,3.86,10.99,8.18,17.72,9.59
				c-2.85,0.3-5.8,0.96-8.59,0.01c-3.12-1.17-5.83-3.14-8.81-4.57c-0.42,3.19-0.13,6.41,0.58,9.54c-0.24,0.05-0.71,0.16-0.94,0.22
				c-0.72,0.13-2.15,0.38-2.86,0.51c-0.41-3.67,0.07-7.36-0.1-11.03c-0.85-2.96-3.4-4.87-5.71-6.68c-0.72,2.88-1.37,5.82-2.76,8.48
				c-4.04-2.24-1.28-7.2-1.3-10.73c-3.15-0.96-6.42-2.2-9.71-1.11c1.21,4.58,4.87,8.25,5.21,13.11c-0.23,3.69-1.31,7.25-2.25,10.8
				c-1.23,0.01-2.46,0.02-3.69,0.03c2.91-6.59,1.88-14.71-2.63-20.34c-2.25-2.64-5.78-3.52-8.67-5.24
				c-4.76-2.34-8.92-5.64-12.98-9.01c-1.29,13.08,11.86,21.93,11.31,34.76c-1.28-0.02-2.56-0.03-3.83-0.03
				c0.04-2.61,0.29-5.42-1.25-7.7c-2.56-4.42-5.53-8.6-7.73-13.22c-1.16,0.26-2.34,0.52-3.3,1.28c-2.98,2.03-6.9,2.67-9.26,5.58
				c-2.31,2.93-3.11,6.68-4,10.22c-1.6-0.44-3.23-0.79-4.83-1.25c0.66-4.76,3.04-9.07,6.28-12.56c1.94-1.67,1.63-4.47,0.97-6.68
				c-1.24-2.61-3.94-4.02-5.85-6.07c-1.68-1.58-2.3-3.87-3.42-5.81c-3.5,0.56-4.84,4.44-6.01,7.3c2.11,7.05,4.07,14.37,3.03,21.81
				c-1.28-0.39-2.55-0.8-3.82-1.21c0.36-5.55-0.31-11.58-4.14-15.91c-2.5,3.7-3.9,7.98-5.9,11.95c-1.12-0.57-2.24-1.14-3.36-1.69
				c1.49-5.32,4.33-10.09,6.73-15.02c-1.35-3.34-3.93-5.91-6.74-8.07c-2.22,6.66-4.31,13.62-9.45,18.71
				c-1.1-0.71-2.19-1.42-3.29-2.12c2.24-2.99,4.62-5.98,5.77-9.58c1.8-5.8,2-11.99,1.52-18.01c-0.14-2.44-1.3-4.66-2.65-6.64
				c-2.57,2.97-4.32,6.58-7.27,9.25c-2.33,1.75-0.77,4.75-0.12,6.97c1.61,4.81-0.2,9.8-1.27,14.52c-0.99-0.6-1.97-1.22-2.94-1.83
				c0.8-4.71,1.74-10.09-1.34-14.22c-1.02,3.66-2.09,7.42-4.82,10.23c-3.38-2.05,0.11-4.68,0.6-7.27c0.93-3.12,0.63-6.79,2.91-9.36
				c3-3.43,6.85-6.7,7.59-11.45c0.44-2.55-1.53-5.49-4.2-5.63c-2.92-0.56-4.44,2.45-6.33,4.06c-6.48,5.66-5.76,14.97-7.62,22.64
				c-0.91-1.1-2.25-1.96-2.75-3.33c-0.19-3.68,0.98-7.26,1.3-10.89c-2.28,1.37-3.63,3.66-5.15,5.74c-1.71,0.5-2.27-1.82-3.37-2.69
				c4.83-6.24,11.2-11.92,12.81-19.99c1.21-4.84-0.22-10.3-4.11-13.54c0.08,3.07,0.66,6.77-1.96,9.04
				c-5.57,5.39-10.04,12.47-10.58,20.37c-1.71-2.8-5.22-5.15-4.44-8.82c0.43-5.03,4.35-8.53,7.02-12.46
				c0.78-0.88,0.9-2.06,0.91-3.17c-6.06,0.02-12.66,0.3-17.5,4.44c-0.11-3.72,3.85-5.35,6.45-7.14c4.07-2.64,10.54-3.94,11.22-9.64
				c0.34-9.28-7.29-15.89-11.18-23.61c-2.25-4.87-1.59-12.21-7.49-14.5c-5.38-1.87-9.4-7.07-9.76-12.76c2.41,0.72,2.4,3.7,3.96,5.34
				c3.07,4.18,8.58,4.73,12.57,7.64c2.61,2.08,2.01-2.94,1.34-4.31c-3.71-4.29-8.21-8.78-8.16-14.91c0.22-0.91-0.36-3.52,1.35-2.54
				c0.96,2.73,1.31,5.73,2.94,8.19c1.97,3.31,5.05,5.7,7.71,8.42c0.81,3.58-1.54,7.33-0.16,10.96c0.92,3.08,2.35,7.55,6.25,7.53
				c2.32-2.58,0.84-6.41,0.47-9.46c-2.13-7.72-5.82-14.99-7.18-22.93c-0.55-3.68,0.23-7.38,0.11-11.06
				c-3.22-6.52-8.19-12.08-14.44-15.81c2.4-1.33,4.76,0.17,6.87,1.3C15.178,101.173,15.547,95.723,17.337,90.623z M72.527,215.563
				c3.12,5.08,3.03,11.2,4.09,16.89c0.78,4.88,4.49,8.43,7.43,12.13c2.91-3.67,5.96-7.22,8.88-10.88c2.71-3.47,4.11-8.55,1.92-12.62
				c-1.78-3.75-6.46-4-9.9-5.31C81.007,214.843,76.027,212.493,72.527,215.563z M102.718,229.993c0.51,3.93-4.31,5.89-3.97,9.75
				c0.49,3.7,4.14,5.47,6.38,8.04c1.9,2.03,2.58,4.8,3.36,7.39c3.54-2.05,5.59-6.16,5.1-10.22c-0.63-7.77-4.28-15.08-9.16-21.06
				C101.768,224.733,103.098,227.903,102.718,229.993z M117.188,230.763c0.89,3.09,3.84,4.92,6.21,6.82
				c7.29,4.64,16.64,4.47,24.8,2.67c-2.53-3.2-5.92-6.04-10.09-6.58C131.098,233.013,123.917,233.093,117.188,230.763z
				 M131.007,245.563c2.21,1.99,4.76,4.02,7.91,3.88c4.99-0.23,9.92,0.41,14.8,1.35c-0.54-1.57-0.93-3.25-1.91-4.61
				C144.917,247.123,137.728,248.013,131.007,245.563z"/>
		</g>
	</g>
	<g>
		<path fill="#B8BA80" d="M157.377,105.103c1.01-0.58,1.94-0.5,2.81,0.25l0.03,0.36c-0.15,0.08-0.46,0.24-0.62,0.33
			c0.01,0.47,0.04,1.4,0.05,1.87c-0.47-0.12-1.43-0.37-1.9-0.5C157.658,106.833,157.468,105.683,157.377,105.103z"/>
	</g>
	<g>
		<path fill="#797D06" d="M144.828,107.363c3.35-0.43,7.17,0.53,8.94,3.65c1.27,1.56,0.78,5.04-1.73,4.69
			c-3.64,0.01-5.85-3.38-7.98-5.83C144.248,109.253,144.638,107.993,144.828,107.363z"/>
	</g>
	<g>
		<path fill="#AAAC6D" d="M16.277,116.773c0.39,1.59,1.33,3.34,0.36,4.93c-0.74,0.91-1.98,1.17-2.94,1.77l0.07-0.8
			c0.15-1.5,0.31-3,0.47-4.49c0.48,0.32,1.45,0.95,1.93,1.27C16.198,118.783,16.248,117.443,16.277,116.773z"/>
	</g>
	<path fill="#FEFEFD" d="M117.188,230.763c6.73,2.33,13.91,2.25,20.92,2.91c4.17,0.54,7.56,3.38,10.09,6.58
		c-8.16,1.8-17.51,1.97-24.8-2.67C121.027,235.683,118.078,233.853,117.188,230.763z"/>
	<g>
		<path fill="#FDFDFD" d="M72.527,215.563c3.5-3.07,8.48-0.72,12.42,0.21c3.44,1.31,8.12,1.56,9.9,5.31
			c2.19,4.07,0.79,9.15-1.92,12.62c-2.92,3.66-5.97,7.21-8.88,10.88c-2.94-3.7-6.65-7.25-7.43-12.13
			C75.558,226.763,75.647,220.643,72.527,215.563z"/>
		<path fill="#FDFDFD" d="M102.718,229.993c0.38-2.09-0.95-5.26,1.71-6.1c4.88,5.98,8.53,13.29,9.16,21.06
			c0.49,4.06-1.56,8.17-5.1,10.22c-0.78-2.59-1.46-5.36-3.36-7.39c-2.24-2.57-5.89-4.34-6.38-8.04
			C98.408,235.883,103.228,233.923,102.718,229.993z"/>
	</g>
	<g>
		<path fill="#FBFBFA" d="M131.007,245.563c6.72,2.45,13.91,1.56,20.8,0.62c0.98,1.36,1.37,3.04,1.91,4.61
			c-4.88-0.94-9.81-1.58-14.8-1.35C135.768,249.583,133.218,247.553,131.007,245.563z"/>
	</g>
	<g>
		<path fill="#415318" d="M135.664,197.103c-0.857,0-1.733-0.144-2.625-0.429c-0.894-0.287-1.626-0.964-2.197-2.036
			c-0.573-1.072-0.857-2.714-0.857-4.93c0-1.571,0.124-3.5,0.375-5.787c0.25-2.286,0.589-4.751,1.018-7.395
			c0.571-3.572,1.053-7.341,1.447-11.306c0.392-3.965,0.589-8.02,0.589-12.164c0-3.357-0.161-6.27-0.482-8.734
			c-0.322-2.465-0.733-4.375-1.232-5.733c-2.716,0.072-5.289,0.251-7.716,0.536c-2.43,0.286-4.895,0.75-7.395,1.393
			c-0.643,0.072-1.197,0.161-1.661,0.268c-0.466,0.107-0.911,0.161-1.34,0.161c-0.643,0-1.108-0.124-1.393-0.375
			c-0.287-0.25-0.429-0.874-0.429-1.875c0-1.214,0.177-2.481,0.536-3.805c0.357-1.321,0.893-2.446,1.608-3.375
			c0.713-1,1.554-1.731,2.518-2.197c0.965-0.464,2.018-0.767,3.162-0.911c1.785-0.214,4.072-0.41,6.859-0.589
			c2.786-0.178,5.841-0.338,9.163-0.482c3.322-0.143,6.591-0.214,9.806-0.214c5.214,0,8.949,0.037,11.199,0.107
			c2.25,0.072,3.768,0.179,4.555,0.322c1,0.144,1.696,0.447,2.09,0.911c0.392,0.466,0.589,1.198,0.589,2.197
			c0,1.929-0.857,3.858-2.572,5.787c-0.715,0.857-1.465,1.519-2.251,1.982c-0.787,0.466-1.822,0.662-3.108,0.59
			c-1.144-0.143-2.823-0.25-5.037-0.322c-2.215-0.07-4.68-0.107-7.395-0.107c-0.072,2.501-0.268,5.412-0.59,8.734
			c-0.321,3.322-0.696,6.663-1.125,10.021c-0.429,3.287-0.787,6.574-1.072,9.859c-0.286,3.287-0.429,6.288-0.429,9.002
			c0,2.501,0.231,4.699,0.697,6.591c0.464,1.894,1.41,3.52,2.84,4.876c1,1.001,1.5,2.073,1.5,3.215c0,1.572-0.895,3-2.679,4.287
			C140.843,196.46,138.521,197.103,135.664,197.103z"/>
		<path fill="#415318" d="M175.422,197.103c-0.857,0-1.733-0.144-2.625-0.429c-0.895-0.287-1.626-0.964-2.197-2.036
			c-0.573-1.072-0.857-2.714-0.857-4.93c0-1.429,0.124-3.269,0.375-5.52c0.25-2.25,0.517-4.447,0.804-6.591
			c0.571-3.572,1.088-7.502,1.554-11.789c0.464-4.287,0.697-8.537,0.697-12.753c0-1.5-0.037-3.071-0.107-4.716
			c-0.072-1.643-0.214-3.215-0.429-4.715c-0.428,0.214-0.911,0.412-1.447,0.589c-0.536,0.179-0.983,0.268-1.339,0.268
			c-0.715,0-1.197-0.375-1.447-1.125c-0.251-0.75-0.375-1.625-0.375-2.626c0-2.286,0.552-4.126,1.661-5.519
			c1.107-1.393,2.768-2.661,4.983-3.805c2.929-1.643,6.055-2.84,9.377-3.59c3.322-0.75,6.484-1.125,9.484-1.125
			c4.429,0,8.359,0.787,11.789,2.358c3.429,1.572,6.108,3.788,8.038,6.645c1.929,2.858,2.894,6.288,2.894,10.288
			c0,4.145-0.983,7.823-2.947,11.038c-1.966,3.215-4.466,5.841-7.502,7.877c-3.038,2.037-6.127,3.376-9.27,4.019
			c1.142,1.787,2.375,3.573,3.697,5.358c1.321,1.787,2.661,3.395,4.019,4.823c4.072,4.216,8.215,6.323,12.432,6.323
			c1.142,0,2.143-0.07,3-0.214c0.429-0.07,0.804,0.09,1.125,0.482c0.321,0.394,0.482,1.162,0.482,2.304
			c0,1.358-0.286,2.733-0.857,4.126c-0.572,1.393-1.537,2.555-2.894,3.483c-1.358,0.928-3.215,1.393-5.573,1.393
			c-2.786,0-5.449-0.929-7.984-2.786c-2.537-1.857-4.876-4.233-7.02-7.127s-4.056-5.948-5.733-9.163
			c-1.68-3.215-3.091-6.179-4.233-8.896c-0.286-0.785-0.536-1.554-0.75-2.304c-0.214-0.75-0.322-1.482-0.322-2.197
			c0-1.214,0.392-2.213,1.179-3c0.571-0.571,1.375-0.965,2.411-1.179c1.035-0.214,2.554-0.321,4.555-0.321
			c3.786,0,6.859-1.035,9.216-3.108c2.358-2.071,3.537-4.75,3.537-8.038c0-3.572-1.339-6.179-4.019-7.823
			c-2.679-1.643-5.948-2.465-9.806-2.465c-3.145,0-6.43,0.5-9.859,1.5c-0.214,4.646-0.715,9.967-1.5,15.968
			c-0.429,3.574-0.804,7.11-1.125,10.61c-0.321,3.501-0.482,6.681-0.482,9.538c0,2.501,0.231,4.699,0.696,6.591
			c0.464,1.894,1.41,3.52,2.84,4.876c1,1.001,1.5,2.073,1.5,3.215c0,1.572-0.894,3-2.679,4.287
			C180.602,196.46,178.279,197.103,175.422,197.103z"/>
		<path fill="#415318" d="M249.369,197.424c-6.789,0-11.807-1.09-15.058-3.269c-3.252-2.179-4.876-6.27-4.876-12.271
			c0-1.214,0.089-2.679,0.268-4.394c0.177-1.715,0.445-3.786,0.804-6.216c0.571-3.5,1-6.626,1.286-9.377
			c0.285-2.75,0.428-5.769,0.428-9.056c0-2.144-0.053-4.215-0.161-6.216c-0.107-2-0.305-3.894-0.589-5.68
			c-1.072,0.214-1.787,0.322-2.144,0.322c-0.572,0-0.964-0.124-1.179-0.375c-0.214-0.25-0.321-0.731-0.321-1.447
			c0-1.5,0.177-2.982,0.536-4.447c0.357-1.463,0.857-2.661,1.5-3.59c1.214-1.714,3.071-2.714,5.573-3
			c1.929-0.214,4.304-0.429,7.127-0.643c2.821-0.214,5.715-0.375,8.681-0.482c2.964-0.107,5.626-0.161,7.984-0.161
			c6.572,0,10.466,0.144,11.682,0.429c1.857,0.286,2.786,1.286,2.786,3c0,2.144-0.75,4.109-2.25,5.895
			c-0.787,1.072-1.572,1.84-2.358,2.304c-0.787,0.465-1.894,0.661-3.322,0.589c-3.145-0.214-5.894-0.357-8.252-0.429
			c-2.357-0.07-4.002-0.107-4.93-0.107c-1.645,0-3.341,0.037-5.09,0.107c-1.751,0.072-3.52,0.179-5.305,0.321
			c0,2.502-0.107,5.181-0.321,8.038c-0.214,2.858-0.501,5.859-0.857,9.002c3.286-0.214,7.001-0.375,11.146-0.482
			c4.143-0.107,7.823-0.161,11.039-0.161c1.428,0,2.411,0.144,2.947,0.429c0.536,0.287,0.804,1.037,0.804,2.25
			c0,1.144-0.305,2.412-0.911,3.805c-0.608,1.393-1.412,2.59-2.411,3.59c-0.429,0.428-0.895,0.769-1.393,1.018
			c-0.501,0.251-1.179,0.34-2.037,0.268c-3.073-0.142-6.556-0.25-10.449-0.321c-3.895-0.07-7.306-0.07-10.235,0
			c-0.286,1.645-0.5,3.145-0.643,4.501c-0.144,1.358-0.214,2.572-0.214,3.644c0,3.93,1,6.681,3.001,8.252
			c2,1.572,5.287,2.357,9.859,2.357c2.787,0,5.482-0.25,8.091-0.75c2.607-0.499,5.268-1.428,7.984-2.787
			c1-0.571,1.75-0.857,2.25-0.857c0.785,0,1.554,0.555,2.304,1.661c0.75,1.109,1.125,2.304,1.125,3.59
			c0,1.572-0.589,3.054-1.768,4.448c-1.179,1.393-2.733,2.59-4.662,3.59c-2.215,1.001-4.859,1.769-7.93,2.304
			C255.834,197.157,252.654,197.424,249.369,197.424z"/>
		<path fill="#415318" d="M301.453,197.424c-6.789,0-11.807-1.09-15.058-3.269c-3.252-2.179-4.876-6.27-4.876-12.271
			c0-1.214,0.089-2.679,0.268-4.394c0.177-1.715,0.445-3.786,0.804-6.216c0.571-3.5,1-6.626,1.286-9.377
			c0.285-2.75,0.428-5.769,0.428-9.056c0-2.144-0.053-4.215-0.161-6.216c-0.107-2-0.305-3.894-0.589-5.68
			c-1.072,0.214-1.787,0.322-2.144,0.322c-0.572,0-0.964-0.124-1.179-0.375c-0.214-0.25-0.321-0.731-0.321-1.447
			c0-1.5,0.177-2.982,0.536-4.447c0.357-1.463,0.857-2.661,1.5-3.59c1.214-1.714,3.071-2.714,5.573-3
			c1.929-0.214,4.304-0.429,7.127-0.643c2.821-0.214,5.715-0.375,8.681-0.482c2.964-0.107,5.626-0.161,7.984-0.161
			c6.572,0,10.466,0.144,11.682,0.429c1.857,0.286,2.786,1.286,2.786,3c0,2.144-0.75,4.109-2.25,5.895
			c-0.787,1.072-1.572,1.84-2.358,2.304c-0.787,0.465-1.894,0.661-3.322,0.589c-3.145-0.214-5.894-0.357-8.252-0.429
			c-2.357-0.07-4.002-0.107-4.93-0.107c-1.645,0-3.341,0.037-5.09,0.107c-1.751,0.072-3.52,0.179-5.305,0.321
			c0,2.502-0.107,5.181-0.321,8.038c-0.214,2.858-0.501,5.859-0.857,9.002c3.286-0.214,7.001-0.375,11.146-0.482
			c4.143-0.107,7.823-0.161,11.039-0.161c1.428,0,2.411,0.144,2.947,0.429c0.536,0.287,0.804,1.037,0.804,2.25
			c0,1.144-0.305,2.412-0.911,3.805c-0.608,1.393-1.412,2.59-2.411,3.59c-0.429,0.428-0.895,0.769-1.393,1.018
			c-0.501,0.251-1.179,0.34-2.037,0.268c-3.073-0.142-6.556-0.25-10.449-0.321c-3.895-0.07-7.306-0.07-10.235,0
			c-0.286,1.645-0.5,3.145-0.643,4.501c-0.144,1.358-0.214,2.572-0.214,3.644c0,3.93,1,6.681,3.001,8.252
			c2,1.572,5.287,2.357,9.859,2.357c2.787,0,5.482-0.25,8.091-0.75c2.607-0.499,5.268-1.428,7.984-2.787
			c1-0.571,1.75-0.857,2.25-0.857c0.785,0,1.554,0.555,2.304,1.661c0.75,1.109,1.125,2.304,1.125,3.59
			c0,1.572-0.589,3.054-1.768,4.448c-1.179,1.393-2.733,2.59-4.662,3.59c-2.215,1.001-4.859,1.769-7.93,2.304
			C307.918,197.157,304.738,197.424,301.453,197.424z"/>
		<path fill="#415318" d="M356.429,197.103c-3.073,0-6.146-0.09-9.217-0.268c-3.073-0.179-5.859-0.536-8.359-1.072
			c-2.501-0.536-4.501-1.393-6.001-2.572c-1.5-1.179-2.25-2.768-2.25-4.769c0-1.571,0.446-3.001,1.34-4.287
			c0.893-1.286,2.197-2.714,3.912-4.287c1.5-1.356,3.518-3.197,6.055-5.519c2.535-2.321,5.305-4.912,8.306-7.77
			c3-2.856,5.948-5.696,8.841-8.52c2.894-2.822,5.5-5.447,7.823-7.877c2.321-2.428,4.054-4.357,5.198-5.787
			c0.785-1.142,1.179-2,1.179-2.572c0-0.928-0.715-1.643-2.143-2.144c-1.072-0.356-2.698-0.643-4.876-0.857
			c-2.18-0.214-4.734-0.322-7.663-0.322c-1.929,0-4.019,0.107-6.27,0.322c-2.25,0.214-4.394,0.554-6.43,1.018
			c-2.037,0.465-3.663,1.09-4.876,1.875c-0.643,0.428-1.072,0.804-1.286,1.125c-0.214,0.322-0.608,0.482-1.179,0.482
			c-1.001,0-2.126-0.75-3.376-2.25c-1.25-1.5-1.875-3.178-1.875-5.037c0-2,0.804-3.607,2.412-4.823
			c1.607-1.214,3.714-2.125,6.323-2.733c2.607-0.606,5.466-1.018,8.574-1.232c3.108-0.214,6.162-0.321,9.163-0.321
			c3.001,0,6.072,0.072,9.217,0.214c3.143,0.144,6.037,0.519,8.681,1.125c2.643,0.607,4.769,1.59,6.376,2.947
			c1.607,1.358,2.411,3.252,2.411,5.68c0,2.644-0.983,5.412-2.947,8.306c-1.966,2.894-4.466,5.787-7.502,8.681
			c-3.038,2.894-6.127,5.733-9.27,8.52c-3.716,3.215-7.448,6.502-11.199,9.859c-3.751,3.359-6.984,6.288-9.699,8.788
			c-0.643,0.501-0.965,1.037-0.965,1.608c0,0.929,0.678,1.5,2.037,1.714c1.286,0.144,2.964,0.287,5.037,0.429
			c2.071,0.144,4.608,0.214,7.609,0.214c5.644,0,9.806-0.41,12.485-1.232c2.679-0.82,4.662-1.589,5.948-2.304
			c0.786-0.499,1.429-0.874,1.929-1.125c0.499-0.25,1-0.375,1.5-0.375c0.785,0,1.785,0.608,3,1.822
			c1.214,1.216,1.822,2.858,1.822,4.93c0,2.288-0.911,4.109-2.733,5.466c-1.822,1.358-4.217,2.395-7.181,3.108
			c-2.965,0.715-6.181,1.195-9.645,1.447C363.197,196.978,359.786,197.103,356.429,197.103z"/>
	</g>
</g>
</svg>
